<?xml version="1.0" encoding="UTF-8"?>
<svg width="163.67mm" height="163.67mm" version="1.1" viewBox="0 0 163.67 163.67" xml:space="preserve" xmlns="http://www.w3.org/2000/svg"><g transform="translate(-26.281 -57.962)"><path d="m104.37 59.493c-8.2859 1.6942-12.712 11.173-10.755 18.881 1.126 4.4332 5.0563 6.9321 6.9042 10.936 1.215 2.6325 0.91937 5.3135 1.042 8.1139 0.30232 6.9042 0.41228 13.284-5.6635 17.903-6.7154 5.1058-13 2.0684-19.398-1.5766-2.7415-1.562-5.595-2.961-7.6873-5.3959-2.3988-2.7916-2.5559-6.5009-4.5031-9.5059-4.6112-7.1164-14.218-9.1296-21.323-4.4152-7.5246 4.9925-9.0091 16.431-2.614 22.993 6.1618 6.3219 11.728 3.343 19.195 3.815 8.1459 0.51488 20.289 8.1749 21.417 16.752 1.1343 8.6222-5.3069 12.954-11.892 16.729-2.7763 1.5917-5.529 3.4589-8.8194 3.7001-5.6964 0.41756-10.32-2.3652-15.875 0.75265-9.1955 5.1612-11.013 18.522-2.4556 25.3 6.095 4.828 15.238 4.2421 20.583-1.4288 2.9192-3.0974 3.0598-7.1365 5.3758-10.481 4.5122-6.5168 16.95-13.487 24.828-10.124 9.5633 4.0825 11.8 18.904 7.7949 27.763-2.3144 5.1199-6.633 7.758-7.3414 13.758-1.2121 10.268 8.5494 18.034 18.244 16.194 8.4789-1.6094 13.576-10.484 11.473-18.664-1.1586-4.5058-4.8286-6.8979-6.7139-10.936-1.4369-3.0776-1.2312-6.2157-1.2312-9.525 0-6.8241-0.0964-12.455 5.9373-16.963 7.8847-5.8904 20.09 0.0441 26.014 6.4126 2.992 3.2162 3.2766 7.4156 5.7158 10.902 4.7721 6.8204 14.497 8.2854 21.246 3.6089 7.5714-5.2458 8.3751-16.917 1.7639-23.298-6.2738-6.0549-12.058-2.7358-19.403-3.2719-2.8567-0.20849-5.3061-1.7276-7.7611-3.0618-5.9576-3.2378-12.247-6.7368-12.993-14.193-0.86733-8.6743 5.7272-12.678 12.287-16.428 2.8526-1.631 5.4531-3.3328 8.8194-3.6187 5.8149-0.49392 10.167 2.2599 15.875-0.87732 8.9659-4.9275 10.39-18.202 2.4681-24.773-5.9932-4.9717-15.292-4.8512-20.781 0.89991-3.071 3.2179-3.3267 7.4067-5.7541 10.931-4.3892 6.3718-16.61 13.025-24.264 9.9252-8.4621-3.4274-9.1722-10.372-9.1722-18.392 0-3.5467-0.2029-6.8936 1.3229-10.199 2.1902-4.7447 6.3054-7.0797 7.0417-12.732 1.3966-10.721-8.9088-18.464-18.948-16.412" fill="#4baf4f"/></g><g transform="translate(-26.281 -57.962)" fill="#f34335"><path d="m70.852 68.115c-9.173 1.9565-12.81 13.272-6.2585 20.096 3.6451 3.7966 9.2224 4.1774 12.535 8.6632 2.6032 3.5254 5.9516 14.803 11.715 13.341 3.2149-0.8156 4.1868-4.1779 3.0509-7.0049-1.7772-4.423-5.4429-8.1472-6.8255-12.7-1.2701-4.1823 0.23776-7.5531-0.16605-11.642-0.67434-6.8277-7.139-12.228-14.051-10.753"/><path d="m36.986 128.76c-4.4854 0.63681-8.4784 3.1963-10.037 7.61-2.7673 7.8352 3.416 17.262 12.154 16.121 5.1213-0.66915 8.3276-4.6842 13.053-6.3489 4.2596-1.5006 9.6462-0.49489 14.111-0.60457 2.4153-0.0593 4.947-0.64699 5.823-3.2014 0.84352-2.4598-0.18963-5.1783-2.6483-6.1197-4.9954-1.9127-11.09 0.49623-16.228-0.81988-5.9184-1.5161-9.6553-7.5692-16.228-6.6361"/><path d="m87.433 170.91c-5.0539 0.54693-7.519 9.3825-10.056 12.988-3.6273 5.1548-10.392 5.5031-13.958 10.334-6.317 8.5577 0.97302 20.238 11.314 18.984 1.3346-0.16193 2.694-0.66167 3.8806-1.2843 9.183-4.8183 3.6829-13.704 6.3818-21.228 1.6903-4.7127 5.9462-8.6003 7.18-13.406 0.77944-3.0358-1.1873-6.772-4.7424-6.3873"/><path d="m127.45 171.2c-3.2821 1.0918-3.9827 4.6164-2.6249 7.5036 1.9494 4.145 5.3913 7.9305 6.6712 12.347 1.1489 3.9644-0.29278 7.4064 0.13936 11.289 0.82089 7.3749 7.9626 12.919 15.42 10.587 8.5456-2.6716 10.852-14.042 4.5722-20.079-3.7842-3.6379-9.0914-3.9459-12.342-8.4996-2.4917-3.4902-6.0462-15.074-11.835-13.148z"/><path d="m175.98 129.13c-4.2978 0.80555-7.2675 4.3756-11.289 5.8973-4.3529 1.6472-9.5447 0.98594-14.111 0.99327-2.3566 4e-3 -5.1712 0.22062-6.1371 2.8225-0.89965 2.4234 0.16412 5.3413 2.6145 6.2569 4.777 1.785 10.578-0.43029 15.517 0.68541 6.4908 1.4662 10.82 8.0583 17.992 6.6832 15.215-2.9174 10.652-26.195-4.5861-23.339"/><path d="m141.41 68.115c-1.3436 0.28665-2.6797 0.85132-3.8806 1.5105-8.6874 4.7684-3.506 13.583-6.0329 20.885-1.6545 4.7808-6.1747 8.8466-7.2349 13.758-0.70993 3.2888 1.6551 6.4084 5.1539 5.9207 3.6833-0.51343 5.2196-5.1836 6.8117-8.0374 1.9325-3.464 3.9864-6.7178 7.2994-9.016 4.853-3.3664 9.8116-3.8288 11.586-10.387 2.1839-8.0732-5.4038-16.404-13.702-14.634"/></g></svg>
